# xmcd
#
# Track frame offsets:
#	150
#	19989
#	52663
#	68799
#	93281
#	116392
#
# Disc length: 1753 seconds
#
# Revision: 0
# Processed by: cddbd v1.5.2PL0 Copyright (c) Steve Scherf et al.
# Submitted via: dBpowerAMP V4.0
#
DISCID=4006d706
DTITLE=Lonna Kelley - Broken Hearted Lover
DYEAR=2005
DGENRE=
TTITLE0=the way you kissed me
TTITLE1=sank
TTITLE2=I should be so happy
TTITLE3=troubles of the world
TTITLE4=if men go to hell
TTITLE5=whose side
EXTD=
EXTT0=
EXTT1=
EXTT2=
EXTT3=
EXTT4=
EXTT5=
PLAYORDER=
